# xmcd
#
# Track frame offsets:
#	150
#	13390
#	26937
#	37757
#	49122
#	61556
#	91521
#	103225
#	114776
#	126495
#	135810
#	151746
#	162478
#	174912
#	186545
#
# Disc length: 2938 seconds
#
# Revision: 0
# Processed by: cddbd v1.5.1PL0 Copyright (c) Steve Scherf et al.
# Submitted via: EasyCDDAExtractor 8.0.1.1
#
DISCID=b70b780f
DTITLE=Charley Pride - The Concert Collection
DYEAR=1996
DGENRE=Country
TTITLE0=Kaw-Liga
TTITLE1=I'm So Afraid Of Losing You Again
TTITLE2=Oklahoma Morning
TTITLE3=It's Gonna Take A Little Bit Longer
TTITLE4=Crystal Chandalier
TTITLE5=Medley
TTITLE6=Shutters And Boards
TTITLE7=The Happiness Of Having You
TTITLE8=My Eyes Can Only See As Far
TTITLE9=Kiss An Angel Good Morning
TTITLE10=Let Me Live In The Light Of His Love
TTITLE11=Mississippi Cotton Pickin' Del
TTITLE12=Help Me Make It Through The Night
TTITLE13=Louisiana Man
TTITLE14=Medley - 2
EXTD=
EXTT0=
EXTT1=
EXTT2=
EXTT3=
EXTT4=
EXTT5=
EXTT6=
EXTT7=
EXTT8=
EXTT9=
EXTT10=
EXTT11=
EXTT12=
EXTT13=
EXTT14=
PLAYORDER=
